<mxfile host="65bd71144e">
    <diagram id="fs26s8ENTE_4_NqMiJsl" name="Page-1">
        <mxGraphModel dx="1456" dy="1810" grid="1" gridSize="10" guides="1" tooltips="1" connect="1" arrows="1" fold="1" page="1" pageScale="1" pageWidth="850" pageHeight="1100" math="0" shadow="0">
            <root>
                <mxCell id="0"/>
                <mxCell id="1" parent="0"/>
                <mxCell id="300" value="" style="edgeStyle=none;html=1;endArrow=none;endFill=0;startArrow=ERmany;startFill=0;" edge="1" parent="1" source="301" target="311">
                    <mxGeometry relative="1" as="geometry">
                        <Array as="points">
                            <mxPoint x="470" y="693"/>
                        </Array>
                    </mxGeometry>
                </mxCell>
                <mxCell id="301" value="Usuario" style="rounded=1;whiteSpace=wrap;html=1;" vertex="1" parent="1">
                    <mxGeometry x="410" y="503" width="120" height="60" as="geometry"/>
                </mxCell>
                <mxCell id="302" value="" style="edgeStyle=none;html=1;endArrow=none;endFill=0;startArrow=ERone;startFill=0;" edge="1" parent="1" source="303" target="308">
                    <mxGeometry relative="1" as="geometry"/>
                </mxCell>
                <mxCell id="303" value="Examen" style="rounded=1;whiteSpace=wrap;html=1;" vertex="1" parent="1">
                    <mxGeometry x="810" y="503" width="120" height="60" as="geometry"/>
                </mxCell>
                <mxCell id="304" style="edgeStyle=none;html=1;entryX=1;entryY=0.5;entryDx=0;entryDy=0;startArrow=none;startFill=0;endArrow=ERmany;endFill=0;" edge="1" parent="1" source="306" target="301">
                    <mxGeometry relative="1" as="geometry"/>
                </mxCell>
                <mxCell id="305" style="edgeStyle=none;html=1;entryX=0;entryY=0.5;entryDx=0;entryDy=0;startArrow=none;startFill=0;endArrow=ERone;endFill=0;" edge="1" parent="1" source="306" target="303">
                    <mxGeometry relative="1" as="geometry"/>
                </mxCell>
                <mxCell id="306" value="Us-Ex" style="rhombus;whiteSpace=wrap;html=1;rounded=1;" vertex="1" parent="1">
                    <mxGeometry x="630" y="493" width="80" height="80" as="geometry"/>
                </mxCell>
                <mxCell id="307" value="" style="edgeStyle=none;html=1;endArrow=ERone;endFill=0;" edge="1" parent="1" source="308" target="309">
                    <mxGeometry relative="1" as="geometry"/>
                </mxCell>
                <mxCell id="308" value="Ex-No" style="rhombus;whiteSpace=wrap;html=1;rounded=1;" vertex="1" parent="1">
                    <mxGeometry x="1010" y="493" width="80" height="80" as="geometry"/>
                </mxCell>
                <mxCell id="309" value="Nota" style="whiteSpace=wrap;html=1;rounded=1;" vertex="1" parent="1">
                    <mxGeometry x="1170" y="503" width="120" height="60" as="geometry"/>
                </mxCell>
                <mxCell id="310" style="edgeStyle=none;html=1;entryX=0.5;entryY=1;entryDx=0;entryDy=0;endArrow=ERone;endFill=0;" edge="1" parent="1" source="311" target="309">
                    <mxGeometry relative="1" as="geometry">
                        <Array as="points">
                            <mxPoint x="1230" y="693"/>
                        </Array>
                    </mxGeometry>
                </mxCell>
                <mxCell id="311" value="Us-No" style="rhombus;whiteSpace=wrap;html=1;rounded=1;" vertex="1" parent="1">
                    <mxGeometry x="830" y="653" width="80" height="80" as="geometry"/>
                </mxCell>
                <mxCell id="312" value="nombre" style="text;html=1;align=center;verticalAlign=middle;resizable=0;points=[];autosize=1;strokeColor=none;fillColor=none;" vertex="1" parent="1">
                    <mxGeometry x="240" y="493" width="60" height="30" as="geometry"/>
                </mxCell>
                <mxCell id="313" value="email" style="text;html=1;align=center;verticalAlign=middle;resizable=0;points=[];autosize=1;strokeColor=none;fillColor=none;" vertex="1" parent="1">
                    <mxGeometry x="250" y="518" width="50" height="30" as="geometry"/>
                </mxCell>
                <mxCell id="314" value="contraseÃ±a" style="text;html=1;align=center;verticalAlign=middle;resizable=0;points=[];autosize=1;strokeColor=none;fillColor=none;" vertex="1" parent="1">
                    <mxGeometry x="220" y="573" width="80" height="30" as="geometry"/>
                </mxCell>
                <mxCell id="315" value="verificacion_email" style="text;html=1;align=center;verticalAlign=middle;resizable=0;points=[];autosize=1;strokeColor=none;fillColor=none;" vertex="1" parent="1">
                    <mxGeometry x="180" y="543" width="120" height="30" as="geometry"/>
                </mxCell>
                <mxCell id="316" value="id" style="text;html=1;align=center;verticalAlign=middle;resizable=0;points=[];autosize=1;strokeColor=none;fillColor=none;" vertex="1" parent="1">
                    <mxGeometry x="270" y="468" width="30" height="30" as="geometry"/>
                </mxCell>
                <mxCell id="317" style="edgeStyle=none;html=1;entryX=0;entryY=0.5;entryDx=0;entryDy=0;endArrow=none;endFill=0;" edge="1" parent="1" source="318" target="301">
                    <mxGeometry relative="1" as="geometry">
                        <Array as="points">
                            <mxPoint x="360" y="483"/>
                            <mxPoint x="360" y="533"/>
                        </Array>
                    </mxGeometry>
                </mxCell>
                <mxCell id="318" value="" style="ellipse;whiteSpace=wrap;html=1;fillColor=#000000;fontColor=#ffffff;strokeColor=light-dark(#000000, #b2cbff);" vertex="1" parent="1">
                    <mxGeometry x="300" y="478" width="10" height="10" as="geometry"/>
                </mxCell>
                <mxCell id="319" value="" style="ellipse;whiteSpace=wrap;html=1;" vertex="1" parent="1">
                    <mxGeometry x="300" y="503" width="10" height="10" as="geometry"/>
                </mxCell>
                <mxCell id="320" style="edgeStyle=none;html=1;entryX=0;entryY=0.5;entryDx=0;entryDy=0;endArrow=none;endFill=0;" edge="1" parent="1" source="321" target="301">
                    <mxGeometry relative="1" as="geometry"/>
                </mxCell>
                <mxCell id="321" value="" style="ellipse;whiteSpace=wrap;html=1;" vertex="1" parent="1">
                    <mxGeometry x="300" y="528" width="10" height="10" as="geometry"/>
                </mxCell>
                <mxCell id="322" style="edgeStyle=none;html=1;entryX=0;entryY=0.5;entryDx=0;entryDy=0;endArrow=none;endFill=0;" edge="1" parent="1" source="323" target="301">
                    <mxGeometry relative="1" as="geometry">
                        <Array as="points">
                            <mxPoint x="360" y="558"/>
                            <mxPoint x="360" y="533"/>
                        </Array>
                    </mxGeometry>
                </mxCell>
                <mxCell id="323" value="" style="ellipse;whiteSpace=wrap;html=1;" vertex="1" parent="1">
                    <mxGeometry x="300" y="553" width="10" height="10" as="geometry"/>
                </mxCell>
                <mxCell id="324" style="edgeStyle=none;html=1;entryX=0;entryY=0.5;entryDx=0;entryDy=0;endArrow=none;endFill=0;" edge="1" parent="1" source="325" target="301">
                    <mxGeometry relative="1" as="geometry">
                        <Array as="points">
                            <mxPoint x="360" y="588"/>
                            <mxPoint x="360" y="533"/>
                        </Array>
                    </mxGeometry>
                </mxCell>
                <mxCell id="325" value="" style="ellipse;whiteSpace=wrap;html=1;" vertex="1" parent="1">
                    <mxGeometry x="300" y="583" width="10" height="10" as="geometry"/>
                </mxCell>
                <mxCell id="326" style="edgeStyle=none;html=1;endArrow=none;endFill=0;" edge="1" parent="1" source="319">
                    <mxGeometry relative="1" as="geometry">
                        <mxPoint x="410" y="533" as="targetPoint"/>
                        <Array as="points">
                            <mxPoint x="330" y="508"/>
                            <mxPoint x="360" y="508"/>
                            <mxPoint x="360" y="533"/>
                        </Array>
                    </mxGeometry>
                </mxCell>
                <mxCell id="327" value="N:1" style="text;html=1;align=center;verticalAlign=middle;resizable=0;points=[];autosize=1;strokeColor=none;fillColor=none;" vertex="1" parent="1">
                    <mxGeometry x="650" y="463" width="40" height="30" as="geometry"/>
                </mxCell>
                <mxCell id="328" value="" style="edgeStyle=none;orthogonalLoop=1;jettySize=auto;html=1;endArrow=none;endFill=0;exitX=1;exitY=0;exitDx=0;exitDy=0;entryX=1;entryY=1;entryDx=0;entryDy=0;" edge="1" parent="1" source="306" target="306">
                    <mxGeometry width="100" relative="1" as="geometry">
                        <mxPoint x="620" y="453" as="sourcePoint"/>
                        <mxPoint x="720" y="453" as="targetPoint"/>
                        <Array as="points"/>
                    </mxGeometry>
                </mxCell>
                <mxCell id="329" value="N:1" style="text;html=1;align=center;verticalAlign=middle;resizable=0;points=[];autosize=1;strokeColor=none;fillColor=none;" vertex="1" parent="1">
                    <mxGeometry x="850" y="628" width="40" height="30" as="geometry"/>
                </mxCell>
                <mxCell id="330" value="" style="edgeStyle=none;orthogonalLoop=1;jettySize=auto;html=1;endArrow=none;endFill=0;exitX=1;exitY=0;exitDx=0;exitDy=0;entryX=1;entryY=1;entryDx=0;entryDy=0;" edge="1" parent="1">
                    <mxGeometry width="100" relative="1" as="geometry">
                        <mxPoint x="890" y="673" as="sourcePoint"/>
                        <mxPoint x="890" y="713" as="targetPoint"/>
                        <Array as="points"/>
                    </mxGeometry>
                </mxCell>
                <mxCell id="331" value="" style="edgeStyle=none;orthogonalLoop=1;jettySize=auto;html=1;endArrow=none;endFill=0;exitX=1;exitY=0;exitDx=0;exitDy=0;entryX=1;entryY=1;entryDx=0;entryDy=0;" edge="1" parent="1">
                    <mxGeometry width="100" relative="1" as="geometry">
                        <mxPoint x="1070" y="513" as="sourcePoint"/>
                        <mxPoint x="1070" y="553" as="targetPoint"/>
                        <Array as="points"/>
                    </mxGeometry>
                </mxCell>
                <mxCell id="332" value="" style="ellipse;whiteSpace=wrap;html=1;fillColor=#000000;fontColor=#ffffff;strokeColor=light-dark(#000000, #b2cbff);" vertex="1" parent="1">
                    <mxGeometry x="810" y="438" width="10" height="10" as="geometry"/>
                </mxCell>
                <mxCell id="333" value="" style="edgeStyle=segmentEdgeStyle;endArrow=none;html=1;curved=0;rounded=0;endSize=8;startSize=8;sourcePerimeterSpacing=0;targetPerimeterSpacing=0;endFill=0;entryX=0.5;entryY=1;entryDx=0;entryDy=0;" edge="1" parent="1" target="338">
                    <mxGeometry width="100" relative="1" as="geometry">
                        <mxPoint x="870" y="498" as="sourcePoint"/>
                        <mxPoint x="970" y="433" as="targetPoint"/>
                        <Array as="points">
                            <mxPoint x="870" y="480"/>
                            <mxPoint x="915" y="480"/>
                        </Array>
                    </mxGeometry>
                </mxCell>
                <mxCell id="334" value="" style="edgeStyle=segmentEdgeStyle;endArrow=none;html=1;curved=0;rounded=0;endSize=8;startSize=8;sourcePerimeterSpacing=0;targetPerimeterSpacing=0;exitX=0.5;exitY=0;exitDx=0;exitDy=0;entryX=0.5;entryY=1;entryDx=0;entryDy=0;endFill=0;" edge="1" parent="1" source="303" target="337">
                    <mxGeometry width="100" relative="1" as="geometry">
                        <mxPoint x="955" y="408" as="sourcePoint"/>
                        <mxPoint x="900" y="353" as="targetPoint"/>
                        <Array as="points">
                            <mxPoint x="870" y="480"/>
                            <mxPoint x="885" y="480"/>
                        </Array>
                    </mxGeometry>
                </mxCell>
                <mxCell id="335" value="" style="edgeStyle=segmentEdgeStyle;endArrow=none;html=1;curved=0;rounded=0;endSize=8;startSize=8;sourcePerimeterSpacing=0;targetPerimeterSpacing=0;exitX=0.5;exitY=0;exitDx=0;exitDy=0;entryX=0.5;entryY=1;entryDx=0;entryDy=0;endFill=0;" edge="1" parent="1" source="303" target="336">
                    <mxGeometry width="100" relative="1" as="geometry">
                        <mxPoint x="930" y="450.5" as="sourcePoint"/>
                        <mxPoint x="875" y="395.5" as="targetPoint"/>
                        <Array as="points">
                            <mxPoint x="870" y="480"/>
                            <mxPoint x="845" y="480"/>
                        </Array>
                    </mxGeometry>
                </mxCell>
                <mxCell id="336" value="" style="ellipse;whiteSpace=wrap;html=1;" vertex="1" parent="1">
                    <mxGeometry x="840" y="438" width="10" height="10" as="geometry"/>
                </mxCell>
                <mxCell id="337" value="" style="ellipse;whiteSpace=wrap;html=1;" vertex="1" parent="1">
                    <mxGeometry x="880" y="438" width="10" height="10" as="geometry"/>
                </mxCell>
                <mxCell id="338" value="" style="ellipse;whiteSpace=wrap;html=1;" vertex="1" parent="1">
                    <mxGeometry x="910" y="438" width="10" height="10" as="geometry"/>
                </mxCell>
                <mxCell id="339" value="" style="edgeStyle=segmentEdgeStyle;endArrow=none;html=1;curved=0;rounded=0;endSize=8;startSize=8;sourcePerimeterSpacing=0;targetPerimeterSpacing=0;endFill=0;entryX=0.5;entryY=1;entryDx=0;entryDy=0;exitX=0.5;exitY=0;exitDx=0;exitDy=0;" edge="1" parent="1" source="303" target="332">
                    <mxGeometry width="100" relative="1" as="geometry">
                        <mxPoint x="880" y="508" as="sourcePoint"/>
                        <mxPoint x="925" y="458" as="targetPoint"/>
                        <Array as="points">
                            <mxPoint x="870" y="480"/>
                            <mxPoint x="815" y="480"/>
                        </Array>
                    </mxGeometry>
                </mxCell>
                <mxCell id="340" value="id" style="text;html=1;align=center;verticalAlign=middle;resizable=0;points=[];autosize=1;strokeColor=none;fillColor=none;rotation=-90;" vertex="1" parent="1">
                    <mxGeometry x="800" y="408" width="30" height="30" as="geometry"/>
                </mxCell>
                <mxCell id="341" value="idUsuario" style="text;html=1;align=center;verticalAlign=middle;resizable=0;points=[];autosize=1;strokeColor=none;fillColor=none;rotation=-90;" vertex="1" parent="1">
                    <mxGeometry x="880" y="388" width="70" height="30" as="geometry"/>
                </mxCell>
                <mxCell id="342" value="preguntas" style="text;html=1;align=center;verticalAlign=middle;resizable=0;points=[];autosize=1;strokeColor=none;fillColor=none;rotation=-90;" vertex="1" parent="1">
                    <mxGeometry x="845" y="388" width="80" height="30" as="geometry"/>
                </mxCell>
                <mxCell id="343" value="asignatura" style="text;html=1;align=center;verticalAlign=middle;resizable=0;points=[];autosize=1;strokeColor=none;fillColor=none;rotation=-90;" vertex="1" parent="1">
                    <mxGeometry x="805" y="388" width="80" height="30" as="geometry"/>
                </mxCell>
                <mxCell id="344" style="edgeStyle=none;html=1;entryX=1;entryY=0.5;entryDx=0;entryDy=0;endArrow=none;endFill=0;" edge="1" parent="1" source="345" target="309">
                    <mxGeometry relative="1" as="geometry">
                        <Array as="points">
                            <mxPoint x="1320" y="488"/>
                            <mxPoint x="1320" y="533"/>
                        </Array>
                    </mxGeometry>
                </mxCell>
                <mxCell id="345" value="" style="ellipse;whiteSpace=wrap;html=1;fillColor=#000000;fontColor=#ffffff;strokeColor=light-dark(#000000, #b2cbff);" vertex="1" parent="1">
                    <mxGeometry x="1360" y="483" width="10" height="10" as="geometry"/>
                </mxCell>
                <mxCell id="346" style="edgeStyle=none;html=1;entryX=1;entryY=0.5;entryDx=0;entryDy=0;endArrow=none;endFill=0;" edge="1" parent="1" source="347" target="309">
                    <mxGeometry relative="1" as="geometry"/>
                </mxCell>
                <mxCell id="347" value="" style="ellipse;whiteSpace=wrap;html=1;" vertex="1" parent="1">
                    <mxGeometry x="1360" y="528" width="10" height="10" as="geometry"/>
                </mxCell>
                <mxCell id="348" style="edgeStyle=none;html=1;entryX=1;entryY=0.5;entryDx=0;entryDy=0;endArrow=none;endFill=0;" edge="1" parent="1" source="349" target="309">
                    <mxGeometry relative="1" as="geometry">
                        <Array as="points">
                            <mxPoint x="1320" y="568"/>
                            <mxPoint x="1320" y="533"/>
                        </Array>
                    </mxGeometry>
                </mxCell>
                <mxCell id="349" value="" style="ellipse;whiteSpace=wrap;html=1;" vertex="1" parent="1">
                    <mxGeometry x="1360" y="563" width="10" height="10" as="geometry"/>
                </mxCell>
                <mxCell id="350" style="edgeStyle=none;html=1;entryX=1;entryY=0.5;entryDx=0;entryDy=0;endArrow=none;endFill=0;" edge="1" parent="1" source="351" target="309">
                    <mxGeometry relative="1" as="geometry">
                        <Array as="points">
                            <mxPoint x="1320" y="603"/>
                            <mxPoint x="1320" y="533"/>
                        </Array>
                    </mxGeometry>
                </mxCell>
                <mxCell id="351" value="" style="ellipse;whiteSpace=wrap;html=1;" vertex="1" parent="1">
                    <mxGeometry x="1360" y="598" width="10" height="10" as="geometry"/>
                </mxCell>
                <mxCell id="352" value="id" style="text;html=1;align=center;verticalAlign=middle;resizable=0;points=[];autosize=1;strokeColor=none;fillColor=none;rotation=0;" vertex="1" parent="1">
                    <mxGeometry x="1375" y="473" width="30" height="30" as="geometry"/>
                </mxCell>
                <mxCell id="353" value="idUsuario" style="text;html=1;align=center;verticalAlign=middle;resizable=0;points=[];autosize=1;strokeColor=none;fillColor=none;rotation=0;" vertex="1" parent="1">
                    <mxGeometry x="1375" y="588" width="70" height="30" as="geometry"/>
                </mxCell>
                <mxCell id="354" value="idExamen" style="text;html=1;align=center;verticalAlign=middle;resizable=0;points=[];autosize=1;strokeColor=none;fillColor=none;rotation=0;" vertex="1" parent="1">
                    <mxGeometry x="1370" y="623" width="80" height="30" as="geometry"/>
                </mxCell>
                <mxCell id="355" value="nota" style="text;html=1;align=center;verticalAlign=middle;resizable=0;points=[];autosize=1;strokeColor=none;fillColor=none;rotation=0;" vertex="1" parent="1">
                    <mxGeometry x="1370" y="553" width="50" height="30" as="geometry"/>
                </mxCell>
                <mxCell id="356" value="&lt;font style=&quot;font-size: 7px;&quot;&gt;ID&lt;/font&gt;" style="text;html=1;align=center;verticalAlign=middle;resizable=0;points=[];autosize=1;strokeColor=none;fillColor=none;" vertex="1" parent="1">
                    <mxGeometry x="680" y="518" width="30" height="30" as="geometry"/>
                </mxCell>
                <mxCell id="357" value="&lt;font style=&quot;font-size: 7px;&quot;&gt;ID&lt;/font&gt;" style="text;html=1;align=center;verticalAlign=middle;resizable=0;points=[];autosize=1;strokeColor=none;fillColor=none;" vertex="1" parent="1">
                    <mxGeometry x="1060" y="518" width="30" height="30" as="geometry"/>
                </mxCell>
                <mxCell id="358" value="&lt;font style=&quot;font-size: 7px;&quot;&gt;ID&lt;/font&gt;" style="text;html=1;align=center;verticalAlign=middle;resizable=0;points=[];autosize=1;strokeColor=none;fillColor=none;" vertex="1" parent="1">
                    <mxGeometry x="880" y="678" width="30" height="30" as="geometry"/>
                </mxCell>
                <mxCell id="359" value="rol" style="text;html=1;align=center;verticalAlign=middle;resizable=0;points=[];autosize=1;strokeColor=none;fillColor=none;" vertex="1" parent="1">
                    <mxGeometry x="260" y="608" width="40" height="30" as="geometry"/>
                </mxCell>
                <mxCell id="360" style="edgeStyle=none;html=1;entryX=0;entryY=0.5;entryDx=0;entryDy=0;endArrow=none;endFill=0;" edge="1" parent="1" source="361" target="301">
                    <mxGeometry relative="1" as="geometry">
                        <Array as="points">
                            <mxPoint x="360" y="623"/>
                            <mxPoint x="360" y="533"/>
                        </Array>
                    </mxGeometry>
                </mxCell>
                <mxCell id="361" value="" style="ellipse;whiteSpace=wrap;html=1;" vertex="1" parent="1">
                    <mxGeometry x="300" y="618" width="10" height="10" as="geometry"/>
                </mxCell>
                <mxCell id="362" value="comentario" style="text;html=1;align=center;verticalAlign=middle;resizable=0;points=[];autosize=1;strokeColor=none;fillColor=none;" vertex="1" parent="1">
                    <mxGeometry x="1375" y="518" width="80" height="30" as="geometry"/>
                </mxCell>
                <mxCell id="363" value="" style="ellipse;whiteSpace=wrap;html=1;" vertex="1" parent="1">
                    <mxGeometry x="1360" y="633" width="10" height="10" as="geometry"/>
                </mxCell>
                <mxCell id="364" style="edgeStyle=none;html=1;entryX=1;entryY=0.5;entryDx=0;entryDy=0;endArrow=none;endFill=0;exitX=0;exitY=0.5;exitDx=0;exitDy=0;" edge="1" parent="1" source="363">
                    <mxGeometry relative="1" as="geometry">
                        <mxPoint x="1360" y="603" as="sourcePoint"/>
                        <mxPoint x="1290" y="533" as="targetPoint"/>
                        <Array as="points">
                            <mxPoint x="1360" y="640"/>
                            <mxPoint x="1320" y="640"/>
                            <mxPoint x="1320" y="533"/>
                        </Array>
                    </mxGeometry>
                </mxCell>
                <mxCell id="365" value="1:1" style="text;html=1;align=center;verticalAlign=middle;resizable=0;points=[];autosize=1;strokeColor=none;fillColor=none;" vertex="1" parent="1">
                    <mxGeometry x="1030" y="468" width="40" height="30" as="geometry"/>
                </mxCell>
                <mxCell id="366" value="" style="whiteSpace=wrap;html=1;fillColor=none;" vertex="1" parent="1">
                    <mxGeometry x="1185" y="508" width="90" height="50" as="geometry"/>
                </mxCell>
                <mxCell id="367" value="imagenCorrecta" style="text;html=1;align=center;verticalAlign=middle;resizable=0;points=[];autosize=1;strokeColor=none;fillColor=none;rotation=-90;" vertex="1" parent="1">
                    <mxGeometry x="890" y="370" width="110" height="30" as="geometry"/>
                </mxCell>
                <mxCell id="368" value="imagenAComparar" style="text;html=1;align=center;verticalAlign=middle;resizable=0;points=[];autosize=1;strokeColor=none;fillColor=none;rotation=-90;" vertex="1" parent="1">
                    <mxGeometry x="910" y="360" width="120" height="30" as="geometry"/>
                </mxCell>
                <mxCell id="369" value="" style="ellipse;whiteSpace=wrap;html=1;" vertex="1" parent="1">
                    <mxGeometry x="940" y="438" width="10" height="10" as="geometry"/>
                </mxCell>
                <mxCell id="370" value="" style="ellipse;whiteSpace=wrap;html=1;" vertex="1" parent="1">
                    <mxGeometry x="965" y="438" width="10" height="10" as="geometry"/>
                </mxCell>
                <mxCell id="371" value="" style="edgeStyle=segmentEdgeStyle;endArrow=none;html=1;curved=0;rounded=0;endSize=8;startSize=8;sourcePerimeterSpacing=0;targetPerimeterSpacing=0;exitX=0.5;exitY=0;exitDx=0;exitDy=0;entryX=0.5;entryY=1;entryDx=0;entryDy=0;endFill=0;" edge="1" parent="1" source="303" target="369">
                    <mxGeometry width="100" relative="1" as="geometry">
                        <mxPoint x="890" y="450" as="sourcePoint"/>
                        <mxPoint x="990" y="490" as="targetPoint"/>
                        <Array as="points">
                            <mxPoint x="870" y="480"/>
                            <mxPoint x="945" y="480"/>
                        </Array>
                    </mxGeometry>
                </mxCell>
                <mxCell id="372" value="" style="edgeStyle=segmentEdgeStyle;endArrow=none;html=1;curved=0;rounded=0;endSize=8;startSize=8;sourcePerimeterSpacing=0;targetPerimeterSpacing=0;exitX=0.5;exitY=0;exitDx=0;exitDy=0;entryX=0.5;entryY=1;entryDx=0;entryDy=0;endFill=0;" edge="1" parent="1" source="303" target="370">
                    <mxGeometry width="100" relative="1" as="geometry">
                        <mxPoint x="880" y="513" as="sourcePoint"/>
                        <mxPoint x="955" y="458" as="targetPoint"/>
                        <Array as="points">
                            <mxPoint x="870" y="480"/>
                            <mxPoint x="970" y="480"/>
                        </Array>
                    </mxGeometry>
                </mxCell>
                <mxCell id="373" value="Respuesta Maestra" style="rounded=1;whiteSpace=wrap;html=1;" vertex="1" parent="1">
                    <mxGeometry x="1350" y="243" width="140" height="60" as="geometry"/>
                </mxCell>
                <mxCell id="374" value="" style="whiteSpace=wrap;html=1;fillColor=none;" vertex="1" parent="1">
                    <mxGeometry x="1360" y="248" width="120" height="50" as="geometry"/>
                </mxCell>
                <mxCell id="375" value="" style="edgeStyle=none;html=1;endArrow=ERone;endFill=0;entryX=1;entryY=0.25;entryDx=0;entryDy=0;exitX=0;exitY=1;exitDx=0;exitDy=0;" edge="1" parent="1" source="376" target="303">
                    <mxGeometry relative="1" as="geometry">
                        <mxPoint x="1350" y="418" as="sourcePoint"/>
                        <mxPoint x="1460" y="473" as="targetPoint"/>
                    </mxGeometry>
                </mxCell>
                <mxCell id="376" value="Ex-No" style="rhombus;whiteSpace=wrap;html=1;rounded=1;" vertex="1" parent="1">
                    <mxGeometry x="1170" y="320" width="80" height="80" as="geometry"/>
                </mxCell>
                <mxCell id="377" value="" style="edgeStyle=none;html=1;endArrow=none;endFill=0;startArrow=ERone;startFill=0;exitX=0;exitY=0.5;exitDx=0;exitDy=0;entryX=1;entryY=0;entryDx=0;entryDy=0;" edge="1" parent="1" source="373" target="376">
                    <mxGeometry relative="1" as="geometry">
                        <mxPoint x="1220" y="344.5" as="sourcePoint"/>
                        <mxPoint x="1300" y="344.5" as="targetPoint"/>
                    </mxGeometry>
                </mxCell>
                <mxCell id="378" value="" style="ellipse;whiteSpace=wrap;html=1;fillColor=#000000;fontColor=#ffffff;strokeColor=light-dark(#000000, #b2cbff);" vertex="1" parent="1">
                    <mxGeometry x="1360" y="178" width="10" height="10" as="geometry"/>
                </mxCell>
                <mxCell id="379" value="" style="edgeStyle=segmentEdgeStyle;endArrow=none;html=1;curved=0;rounded=0;endSize=8;startSize=8;sourcePerimeterSpacing=0;targetPerimeterSpacing=0;endFill=0;entryX=0.5;entryY=1;entryDx=0;entryDy=0;" edge="1" parent="1" target="384">
                    <mxGeometry width="100" relative="1" as="geometry">
                        <mxPoint x="1420" y="238" as="sourcePoint"/>
                        <mxPoint x="1520" y="173" as="targetPoint"/>
                        <Array as="points">
                            <mxPoint x="1420" y="220"/>
                            <mxPoint x="1465" y="220"/>
                        </Array>
                    </mxGeometry>
                </mxCell>
                <mxCell id="380" value="" style="edgeStyle=segmentEdgeStyle;endArrow=none;html=1;curved=0;rounded=0;endSize=8;startSize=8;sourcePerimeterSpacing=0;targetPerimeterSpacing=0;exitX=0.5;exitY=0;exitDx=0;exitDy=0;entryX=0.5;entryY=1;entryDx=0;entryDy=0;endFill=0;" edge="1" parent="1" target="383">
                    <mxGeometry width="100" relative="1" as="geometry">
                        <mxPoint x="1420" y="243" as="sourcePoint"/>
                        <mxPoint x="1450" y="93" as="targetPoint"/>
                        <Array as="points">
                            <mxPoint x="1420" y="220"/>
                            <mxPoint x="1435" y="220"/>
                        </Array>
                    </mxGeometry>
                </mxCell>
                <mxCell id="381" value="" style="edgeStyle=segmentEdgeStyle;endArrow=none;html=1;curved=0;rounded=0;endSize=8;startSize=8;sourcePerimeterSpacing=0;targetPerimeterSpacing=0;exitX=0.5;exitY=0;exitDx=0;exitDy=0;entryX=0.5;entryY=1;entryDx=0;entryDy=0;endFill=0;" edge="1" parent="1" target="382">
                    <mxGeometry width="100" relative="1" as="geometry">
                        <mxPoint x="1420" y="243" as="sourcePoint"/>
                        <mxPoint x="1425" y="135.5" as="targetPoint"/>
                        <Array as="points">
                            <mxPoint x="1420" y="220"/>
                            <mxPoint x="1395" y="220"/>
                        </Array>
                    </mxGeometry>
                </mxCell>
                <mxCell id="382" value="" style="ellipse;whiteSpace=wrap;html=1;" vertex="1" parent="1">
                    <mxGeometry x="1390" y="178" width="10" height="10" as="geometry"/>
                </mxCell>
                <mxCell id="383" value="" style="ellipse;whiteSpace=wrap;html=1;" vertex="1" parent="1">
                    <mxGeometry x="1430" y="178" width="10" height="10" as="geometry"/>
                </mxCell>
                <mxCell id="384" value="" style="ellipse;whiteSpace=wrap;html=1;" vertex="1" parent="1">
                    <mxGeometry x="1460" y="178" width="10" height="10" as="geometry"/>
                </mxCell>
                <mxCell id="385" value="" style="edgeStyle=segmentEdgeStyle;endArrow=none;html=1;curved=0;rounded=0;endSize=8;startSize=8;sourcePerimeterSpacing=0;targetPerimeterSpacing=0;endFill=0;entryX=0.5;entryY=1;entryDx=0;entryDy=0;exitX=0.5;exitY=0;exitDx=0;exitDy=0;" edge="1" parent="1" target="378">
                    <mxGeometry width="100" relative="1" as="geometry">
                        <mxPoint x="1420" y="243" as="sourcePoint"/>
                        <mxPoint x="1475" y="198" as="targetPoint"/>
                        <Array as="points">
                            <mxPoint x="1420" y="220"/>
                            <mxPoint x="1365" y="220"/>
                        </Array>
                    </mxGeometry>
                </mxCell>
                <mxCell id="386" value="id" style="text;html=1;align=center;verticalAlign=middle;resizable=0;points=[];autosize=1;strokeColor=none;fillColor=none;rotation=-90;" vertex="1" parent="1">
                    <mxGeometry x="1350" y="148" width="30" height="30" as="geometry"/>
                </mxCell>
                <mxCell id="387" value="columna" style="text;html=1;align=center;verticalAlign=middle;resizable=0;points=[];autosize=1;strokeColor=none;fillColor=none;rotation=-90;" vertex="1" parent="1">
                    <mxGeometry x="1430" y="128" width="70" height="30" as="geometry"/>
                </mxCell>
                <mxCell id="388" value="fila" style="text;html=1;align=center;verticalAlign=middle;resizable=0;points=[];autosize=1;strokeColor=none;fillColor=none;rotation=-90;" vertex="1" parent="1">
                    <mxGeometry x="1415" y="140" width="40" height="30" as="geometry"/>
                </mxCell>
                <mxCell id="389" value="examen_id" style="text;html=1;align=center;verticalAlign=middle;resizable=0;points=[];autosize=1;strokeColor=none;fillColor=none;rotation=-90;" vertex="1" parent="1">
                    <mxGeometry x="1355" y="128" width="80" height="30" as="geometry"/>
                </mxCell>
                <mxCell id="390" value="imagenCorrecta" style="text;html=1;align=center;verticalAlign=middle;resizable=0;points=[];autosize=1;strokeColor=none;fillColor=none;rotation=-90;" vertex="1" parent="1">
                    <mxGeometry x="1440" y="110" width="110" height="30" as="geometry"/>
                </mxCell>
                <mxCell id="391" value="" style="ellipse;whiteSpace=wrap;html=1;" vertex="1" parent="1">
                    <mxGeometry x="1490" y="178" width="10" height="10" as="geometry"/>
                </mxCell>
                <mxCell id="392" value="" style="edgeStyle=segmentEdgeStyle;endArrow=none;html=1;curved=0;rounded=0;endSize=8;startSize=8;sourcePerimeterSpacing=0;targetPerimeterSpacing=0;exitX=0.5;exitY=0;exitDx=0;exitDy=0;entryX=0.5;entryY=1;entryDx=0;entryDy=0;endFill=0;" edge="1" parent="1" target="391">
                    <mxGeometry width="100" relative="1" as="geometry">
                        <mxPoint x="1420" y="243" as="sourcePoint"/>
                        <mxPoint x="1540" y="230" as="targetPoint"/>
                        <Array as="points">
                            <mxPoint x="1420" y="220"/>
                            <mxPoint x="1495" y="220"/>
                        </Array>
                    </mxGeometry>
                </mxCell>
                <mxCell id="393" value="1:1" style="text;html=1;align=center;verticalAlign=middle;resizable=0;points=[];autosize=1;strokeColor=none;fillColor=none;rotation=0;" vertex="1" parent="1">
                    <mxGeometry x="1185" y="298" width="40" height="30" as="geometry"/>
                </mxCell>
                <mxCell id="394" value="Respuesta Alumnos" style="rounded=1;whiteSpace=wrap;html=1;" vertex="1" parent="1">
                    <mxGeometry x="400" y="163" width="140" height="60" as="geometry"/>
                </mxCell>
                <mxCell id="395" value="" style="whiteSpace=wrap;html=1;fillColor=none;" vertex="1" parent="1">
                    <mxGeometry x="410" y="168" width="120" height="50" as="geometry"/>
                </mxCell>
                <mxCell id="396" value="" style="ellipse;whiteSpace=wrap;html=1;fillColor=#000000;fontColor=#ffffff;strokeColor=light-dark(#000000, #b2cbff);" vertex="1" parent="1">
                    <mxGeometry x="380" y="98" width="10" height="10" as="geometry"/>
                </mxCell>
                <mxCell id="397" value="" style="edgeStyle=segmentEdgeStyle;endArrow=none;html=1;curved=0;rounded=0;endSize=8;startSize=8;sourcePerimeterSpacing=0;targetPerimeterSpacing=0;endFill=0;entryX=0.5;entryY=1;entryDx=0;entryDy=0;" edge="1" parent="1" target="402">
                    <mxGeometry width="100" relative="1" as="geometry">
                        <mxPoint x="470" y="158" as="sourcePoint"/>
                        <mxPoint x="540" y="93" as="targetPoint"/>
                        <Array as="points">
                            <mxPoint x="470" y="158"/>
                            <mxPoint x="470" y="140"/>
                            <mxPoint x="485" y="140"/>
                        </Array>
                    </mxGeometry>
                </mxCell>
                <mxCell id="398" value="" style="edgeStyle=segmentEdgeStyle;endArrow=none;html=1;curved=0;rounded=0;endSize=8;startSize=8;sourcePerimeterSpacing=0;targetPerimeterSpacing=0;entryX=0.5;entryY=1;entryDx=0;entryDy=0;endFill=0;" edge="1" parent="1" target="401">
                    <mxGeometry width="100" relative="1" as="geometry">
                        <mxPoint x="470" y="160" as="sourcePoint"/>
                        <mxPoint x="470" y="13" as="targetPoint"/>
                        <Array as="points">
                            <mxPoint x="470" y="163"/>
                            <mxPoint x="470" y="140"/>
                            <mxPoint x="455" y="140"/>
                        </Array>
                    </mxGeometry>
                </mxCell>
                <mxCell id="399" value="" style="edgeStyle=segmentEdgeStyle;endArrow=none;html=1;curved=0;rounded=0;endSize=8;startSize=8;sourcePerimeterSpacing=0;targetPerimeterSpacing=0;entryX=0.5;entryY=1;entryDx=0;entryDy=0;endFill=0;" edge="1" parent="1" target="400">
                    <mxGeometry width="100" relative="1" as="geometry">
                        <mxPoint x="470" y="163" as="sourcePoint"/>
                        <mxPoint x="445" y="55.5" as="targetPoint"/>
                        <Array as="points">
                            <mxPoint x="470" y="163"/>
                            <mxPoint x="470" y="140"/>
                            <mxPoint x="415" y="140"/>
                        </Array>
                    </mxGeometry>
                </mxCell>
                <mxCell id="400" value="" style="ellipse;whiteSpace=wrap;html=1;" vertex="1" parent="1">
                    <mxGeometry x="410" y="98" width="10" height="10" as="geometry"/>
                </mxCell>
                <mxCell id="401" value="" style="ellipse;whiteSpace=wrap;html=1;" vertex="1" parent="1">
                    <mxGeometry x="450" y="98" width="10" height="10" as="geometry"/>
                </mxCell>
                <mxCell id="402" value="" style="ellipse;whiteSpace=wrap;html=1;" vertex="1" parent="1">
                    <mxGeometry x="480" y="98" width="10" height="10" as="geometry"/>
                </mxCell>
                <mxCell id="403" value="" style="edgeStyle=segmentEdgeStyle;endArrow=none;html=1;curved=0;rounded=0;endSize=8;startSize=8;sourcePerimeterSpacing=0;targetPerimeterSpacing=0;endFill=0;entryX=0.5;entryY=1;entryDx=0;entryDy=0;" edge="1" parent="1" target="396">
                    <mxGeometry width="100" relative="1" as="geometry">
                        <mxPoint x="470" y="160" as="sourcePoint"/>
                        <mxPoint x="495" y="118" as="targetPoint"/>
                        <Array as="points">
                            <mxPoint x="470" y="163"/>
                            <mxPoint x="470" y="140"/>
                            <mxPoint x="385" y="140"/>
                        </Array>
                    </mxGeometry>
                </mxCell>
                <mxCell id="404" value="id" style="text;html=1;align=center;verticalAlign=middle;resizable=0;points=[];autosize=1;strokeColor=none;fillColor=none;rotation=-90;" vertex="1" parent="1">
                    <mxGeometry x="370" y="68" width="30" height="30" as="geometry"/>
                </mxCell>
                <mxCell id="405" value="fila" style="text;html=1;align=center;verticalAlign=middle;resizable=0;points=[];autosize=1;strokeColor=none;fillColor=none;rotation=-90;" vertex="1" parent="1">
                    <mxGeometry x="465" y="48" width="40" height="30" as="geometry"/>
                </mxCell>
                <mxCell id="406" value="user_id" style="text;html=1;align=center;verticalAlign=middle;resizable=0;points=[];autosize=1;strokeColor=none;fillColor=none;rotation=-90;" vertex="1" parent="1">
                    <mxGeometry x="425" y="48" width="60" height="30" as="geometry"/>
                </mxCell>
                <mxCell id="407" value="examen_id" style="text;html=1;align=center;verticalAlign=middle;resizable=0;points=[];autosize=1;strokeColor=none;fillColor=none;rotation=-90;" vertex="1" parent="1">
                    <mxGeometry x="375" y="48" width="80" height="30" as="geometry"/>
                </mxCell>
                <mxCell id="408" value="columna" style="text;html=1;align=center;verticalAlign=middle;resizable=0;points=[];autosize=1;strokeColor=none;fillColor=none;rotation=-90;" vertex="1" parent="1">
                    <mxGeometry x="480" y="38" width="70" height="30" as="geometry"/>
                </mxCell>
                <mxCell id="409" value="" style="ellipse;whiteSpace=wrap;html=1;" vertex="1" parent="1">
                    <mxGeometry x="510" y="98" width="10" height="10" as="geometry"/>
                </mxCell>
                <mxCell id="410" value="" style="edgeStyle=segmentEdgeStyle;endArrow=none;html=1;curved=0;rounded=0;endSize=8;startSize=8;sourcePerimeterSpacing=0;targetPerimeterSpacing=0;entryX=0.5;entryY=1;entryDx=0;entryDy=0;endFill=0;" edge="1" parent="1" target="409">
                    <mxGeometry width="100" relative="1" as="geometry">
                        <mxPoint x="470" y="160" as="sourcePoint"/>
                        <mxPoint x="560" y="150" as="targetPoint"/>
                        <Array as="points">
                            <mxPoint x="470" y="163"/>
                            <mxPoint x="470" y="140"/>
                            <mxPoint x="515" y="140"/>
                        </Array>
                    </mxGeometry>
                </mxCell>
                <mxCell id="411" value="Ex-No" style="rhombus;whiteSpace=wrap;html=1;rounded=1;" vertex="1" parent="1">
                    <mxGeometry x="630" y="320" width="80" height="80" as="geometry"/>
                </mxCell>
                <mxCell id="412" value="Ex-No" style="rhombus;whiteSpace=wrap;html=1;rounded=1;" vertex="1" parent="1">
                    <mxGeometry x="430" y="320" width="80" height="80" as="geometry"/>
                </mxCell>
                <mxCell id="413" value="" style="edgeStyle=segmentEdgeStyle;endArrow=none;html=1;curved=0;rounded=0;endSize=8;startSize=8;sourcePerimeterSpacing=0;targetPerimeterSpacing=0;endFill=0;entryX=0.5;entryY=1;entryDx=0;entryDy=0;" edge="1" parent="1" target="416">
                    <mxGeometry width="100" relative="1" as="geometry">
                        <mxPoint x="470" y="160" as="sourcePoint"/>
                        <mxPoint x="625" y="93" as="targetPoint"/>
                        <Array as="points">
                            <mxPoint x="470" y="160"/>
                            <mxPoint x="470" y="140"/>
                            <mxPoint x="570" y="140"/>
                        </Array>
                    </mxGeometry>
                </mxCell>
                <mxCell id="414" value="" style="edgeStyle=segmentEdgeStyle;endArrow=none;html=1;curved=0;rounded=0;endSize=8;startSize=8;sourcePerimeterSpacing=0;targetPerimeterSpacing=0;entryX=0.5;entryY=1;entryDx=0;entryDy=0;endFill=0;" edge="1" parent="1" target="415">
                    <mxGeometry width="100" relative="1" as="geometry">
                        <mxPoint x="470" y="160" as="sourcePoint"/>
                        <mxPoint x="555" y="13" as="targetPoint"/>
                        <Array as="points">
                            <mxPoint x="470" y="150"/>
                            <mxPoint x="470" y="140"/>
                            <mxPoint x="540" y="140"/>
                        </Array>
                    </mxGeometry>
                </mxCell>
                <mxCell id="415" value="" style="ellipse;whiteSpace=wrap;html=1;" vertex="1" parent="1">
                    <mxGeometry x="535" y="98" width="10" height="10" as="geometry"/>
                </mxCell>
                <mxCell id="416" value="" style="ellipse;whiteSpace=wrap;html=1;" vertex="1" parent="1">
                    <mxGeometry x="565" y="98" width="10" height="10" as="geometry"/>
                </mxCell>
                <mxCell id="417" value="nota" style="text;html=1;align=center;verticalAlign=middle;resizable=0;points=[];autosize=1;strokeColor=none;fillColor=none;rotation=-90;" vertex="1" parent="1">
                    <mxGeometry x="520" y="38" width="50" height="30" as="geometry"/>
                </mxCell>
                <mxCell id="418" value="ImagenAComparar" style="text;html=1;align=center;verticalAlign=middle;resizable=0;points=[];autosize=1;strokeColor=none;fillColor=none;rotation=-90;" vertex="1" parent="1">
                    <mxGeometry x="510" y="18" width="120" height="30" as="geometry"/>
                </mxCell>
                <mxCell id="419" value="1:1" style="text;html=1;align=center;verticalAlign=middle;resizable=0;points=[];autosize=1;strokeColor=none;fillColor=none;rotation=45;" vertex="1" parent="1">
                    <mxGeometry x="710" y="290" width="40" height="30" as="geometry"/>
                </mxCell>
                <mxCell id="420" value="1:1" style="text;html=1;align=center;verticalAlign=middle;resizable=0;points=[];autosize=1;strokeColor=none;fillColor=none;rotation=0;" vertex="1" parent="1">
                    <mxGeometry x="385" y="345" width="40" height="30" as="geometry"/>
                </mxCell>
                <mxCell id="421" style="edgeStyle=none;html=1;startArrow=none;startFill=0;endArrow=ERone;endFill=0;entryX=0.5;entryY=1;entryDx=0;entryDy=0;" edge="1" parent="1" source="412" target="394">
                    <mxGeometry relative="1" as="geometry">
                        <mxPoint x="400" y="290" as="sourcePoint"/>
                        <mxPoint x="660" y="250" as="targetPoint"/>
                    </mxGeometry>
                </mxCell>
                <mxCell id="422" style="edgeStyle=none;html=1;startArrow=none;startFill=0;endArrow=ERone;endFill=0;exitX=0.5;exitY=1;exitDx=0;exitDy=0;entryX=0.5;entryY=0;entryDx=0;entryDy=0;" edge="1" parent="1" source="412" target="301">
                    <mxGeometry relative="1" as="geometry">
                        <mxPoint x="400" y="386" as="sourcePoint"/>
                        <mxPoint x="570" y="430" as="targetPoint"/>
                    </mxGeometry>
                </mxCell>
                <mxCell id="423" style="edgeStyle=none;html=1;startArrow=none;startFill=0;endArrow=ERone;endFill=0;entryX=1;entryY=1;entryDx=0;entryDy=0;exitX=0;exitY=0;exitDx=0;exitDy=0;" edge="1" parent="1" source="411" target="394">
                    <mxGeometry relative="1" as="geometry">
                        <mxPoint x="550" y="340" as="sourcePoint"/>
                        <mxPoint x="550" y="243" as="targetPoint"/>
                    </mxGeometry>
                </mxCell>
                <mxCell id="424" style="edgeStyle=none;html=1;startArrow=none;startFill=0;endArrow=ERone;endFill=0;exitX=1;exitY=1;exitDx=0;exitDy=0;entryX=0;entryY=0;entryDx=0;entryDy=0;" edge="1" parent="1" source="411" target="303">
                    <mxGeometry relative="1" as="geometry">
                        <mxPoint x="550" y="405" as="sourcePoint"/>
                        <mxPoint x="550" y="508" as="targetPoint"/>
                    </mxGeometry>
                </mxCell>
            </root>
        </mxGraphModel>
    </diagram>
</mxfile>